<svg width="23" height="24" viewBox="0 0 23 24" fill="none" xmlns="http://www.w3.org/2000/svg">
<path fill-rule="evenodd" clip-rule="evenodd" d="M18.6789 11.8124C18.212 11.937 17.7319 12 17.25 11.9999H17.2356V12.3254C17.2356 13.6889 17.4412 15.0524 17.871 16.3619L18.4043 18.0314H4.56119V18.0134L5.09306 16.3439C5.50895 15.0421 5.7239 13.6796 5.72988 12.3074V9.00587C5.72988 8.16137 5.90238 7.33637 6.22869 6.58187C6.555 5.81087 7.01931 5.12837 7.62162 4.57187C8.22394 3.99887 8.92975 3.56687 9.68587 3.31637C10.4592 3.04637 11.2671 2.95637 12.0577 3.04637L12.2303 3.07337C12.4917 2.58497 12.8173 2.13714 13.1977 1.74287C12.8686 1.6514 12.5338 1.58374 12.1958 1.54037C11.1981 1.43237 10.1832 1.54037 9.22013 1.88087C8.257 2.20337 7.38013 2.74187 6.64125 3.46037C5.89869 4.16034 5.30684 5.01668 4.90475 5.97287C4.50066 6.92869 4.28975 7.96118 4.28519 9.00587V12.3059C4.28308 13.5138 4.09725 14.7137 3.73463 15.8609L2.875 18.5144L3.56356 19.5014H8.602C8.602 20.2904 8.91106 21.0614 9.44438 21.6194C9.97625 22.1744 10.7166 22.4984 11.4741 22.4984C12.2302 22.4984 12.9691 22.1759 13.5024 21.6194C14.0357 21.0629 14.3462 20.2904 14.3462 19.5014H19.3847L20.0718 18.5144L19.2294 15.8594C18.8656 14.7069 18.6798 13.5013 18.6789 12.2879V11.8124ZM11.4741 21.0299C11.6634 21.0285 11.8505 20.988 12.0247 20.9108C12.1989 20.8336 12.3567 20.7211 12.489 20.5799C12.6247 20.4434 12.7315 20.2788 12.8026 20.0967C12.8736 19.9146 12.9074 19.7189 12.9016 19.5224H10.0294C10.0294 19.9169 10.1832 20.2934 10.4592 20.5814C10.5918 20.7222 10.7497 20.8343 10.9238 20.9113C11.098 20.9882 11.285 21.0285 11.4741 21.0299Z" fill="#5659FD"/>
<path d="M17.25 10.5C17.8163 10.5 18.3771 10.3836 18.9003 10.1575C19.4235 9.93131 19.8989 9.59984 20.2994 9.18198C20.6999 8.76412 21.0175 8.26804 21.2342 7.72208C21.451 7.17611 21.5625 6.59095 21.5625 6C21.5625 5.40905 21.451 4.82389 21.2342 4.27792C21.0175 3.73196 20.6999 3.23588 20.2994 2.81802C19.8989 2.40016 19.4235 2.06869 18.9003 1.84254C18.3771 1.6164 17.8163 1.5 17.25 1.5C16.1063 1.5 15.0094 1.97411 14.2006 2.81802C13.3919 3.66193 12.9375 4.80653 12.9375 6C12.9375 7.19347 13.3919 8.33807 14.2006 9.18198C15.0094 10.0259 16.1063 10.5 17.25 10.5Z" fill="#EBB12B"/>
</svg>
