<svg width="22" height="23" viewBox="0 0 22 23" fill="none" xmlns="http://www.w3.org/2000/svg">
<path d="M20.7891 1.24174L21.3791 1.83174C22.1921 2.64574 22.0691 4.08874 21.1021 5.05474L8.93505 17.2217L4.99305 18.6637C4.49805 18.8457 4.01605 18.6097 3.91805 18.1387C3.88493 17.9679 3.90053 17.7912 3.96305 17.6287L5.43305 13.6527L17.5661 1.51874C18.5331 0.552744 19.9761 0.427744 20.7891 1.24174ZM8.40405 2.45174C8.53537 2.45174 8.66541 2.47761 8.78674 2.52786C8.90806 2.57812 9.0183 2.65178 9.11116 2.74464C9.20402 2.8375 9.27768 2.94774 9.32793 3.06906C9.37819 3.19039 9.40405 3.32042 9.40405 3.45174C9.40405 3.58307 9.37819 3.7131 9.32793 3.83443C9.27768 3.95575 9.20402 4.06599 9.11116 4.15885C9.0183 4.25171 8.90806 4.32537 8.78674 4.37562C8.66541 4.42588 8.53537 4.45174 8.40405 4.45174H4.40405C3.87362 4.45174 3.36491 4.66246 2.98984 5.03753C2.61477 5.4126 2.40405 5.92131 2.40405 6.45174V18.4517C2.40405 18.9822 2.61477 19.4909 2.98984 19.866C3.36491 20.241 3.87362 20.4517 4.40405 20.4517H16.4041C16.9345 20.4517 17.4432 20.241 17.8183 19.866C18.1933 19.4909 18.4041 18.9822 18.4041 18.4517V14.4517C18.4041 14.1865 18.5094 13.9322 18.6969 13.7446C18.8845 13.5571 19.1388 13.4517 19.4041 13.4517C19.6693 13.4517 19.9236 13.5571 20.1112 13.7446C20.2987 13.9322 20.4041 14.1865 20.4041 14.4517V18.4517C20.4041 19.5126 19.9826 20.53 19.2325 21.2802C18.4823 22.0303 17.4649 22.4517 16.4041 22.4517H4.40405C3.34319 22.4517 2.32577 22.0303 1.57563 21.2802C0.82548 20.53 0.404053 19.5126 0.404053 18.4517V6.45174C0.404053 5.39088 0.82548 4.37346 1.57563 3.62332C2.32577 2.87317 3.34319 2.45174 4.40405 2.45174H8.40405Z" fill="#EBB12B"/>
</svg>
