<svg width="161" height="161" viewBox="0 0 161 161" fill="none" xmlns="http://www.w3.org/2000/svg">
<path fill-rule="evenodd" clip-rule="evenodd" d="M53.9563 16.0952C58.9897 6.5994 68.9733 0.125488 80.4785 0.125488C91.9837 0.125488 101.967 6.5994 107.001 16.0952C117.274 12.9398 128.912 15.4215 137.047 23.5569C145.182 31.6924 147.664 43.3295 144.509 53.6033C154.005 58.6367 160.479 68.6203 160.479 80.1255C160.479 91.6307 154.005 101.614 144.509 106.648C147.664 116.921 145.182 128.559 137.047 136.694C128.912 144.829 117.274 147.311 107.001 144.156C101.967 153.652 91.9837 160.125 80.4785 160.125C68.9732 160.125 58.9897 153.652 53.9563 144.156C43.6826 147.311 32.0454 144.829 23.9099 136.694C15.7746 128.559 13.2929 116.921 16.4483 106.648C6.95244 101.614 0.478516 91.6307 0.478516 80.1255C0.478516 68.6203 6.95243 58.6367 16.4482 53.6033C13.2928 43.3295 15.7745 31.6924 23.91 23.5569C32.0454 15.4215 43.6826 12.9398 53.9563 16.0952ZM118.578 60.0501C119.164 60.6359 119.164 61.5856 118.578 62.1714L71.2021 109.548C70.6163 110.133 69.6666 110.133 69.0808 109.548L42.9179 83.3846C42.3321 82.7988 42.3321 81.8491 42.9179 81.2633L51.4031 72.778C51.9889 72.1922 52.9387 72.1922 53.5245 72.778L69.0808 88.3344C69.6666 88.9202 70.6163 88.9202 71.2021 88.3344L107.972 51.5648C108.557 50.979 109.507 50.979 110.093 51.5648L118.578 60.0501Z" fill="#1DA1F2"/>
<path d="M118.578 62.1714C119.164 61.5856 119.164 60.6359 118.578 60.0501L110.093 51.5648C109.507 50.979 108.557 50.979 107.972 51.5648L71.2021 88.3344C70.6163 88.9202 69.6666 88.9202 69.0808 88.3344L53.5245 72.778C52.9387 72.1922 51.9889 72.1922 51.4031 72.778L42.9179 81.2633C42.3321 81.8491 42.3321 82.7988 42.9179 83.3846L69.0808 109.548C69.6666 110.133 70.6163 110.133 71.2021 109.548L118.578 62.1714Z" fill="white"/>
</svg>
