<svg width="16" height="21" viewBox="0 0 16 21" fill="none" xmlns="http://www.w3.org/2000/svg">
<path d="M2 20.7617C1.45 20.7617 0.979002 20.5657 0.587002 20.1737C0.195002 19.7817 -0.000664969 19.3111 1.69779e-06 18.7617V2.76172C1.69779e-06 2.21172 0.196001 1.74072 0.588001 1.34872C0.980001 0.95672 1.45067 0.761054 2 0.76172H14C14.55 0.76172 15.021 0.95772 15.413 1.34972C15.805 1.74172 16.0007 2.21239 16 2.76172V18.7617C16 19.3117 15.804 19.7827 15.412 20.1747C15.02 20.5667 14.5493 20.7624 14 20.7617H2ZM7 9.76172L9.5 8.26172L12 9.76172V2.76172H7V9.76172Z" fill="#EBB12B"/>
</svg>
