<svg width="24" height="17" viewBox="0 0 24 17" fill="none" xmlns="http://www.w3.org/2000/svg">
<path d="M7 8.76172C9.2 8.76172 11 6.96172 11 4.76172C11 2.56172 9.2 0.761719 7 0.761719C4.8 0.761719 3 2.56172 3 4.76172C3 6.96172 4.8 8.76172 7 8.76172ZM11 16.7617V11.4617C9.9 11.0617 8.5 10.7617 7 10.7617C3.1 10.7617 0 12.5617 0 14.7617V16.7617H11ZM22 0.761719H15C13.9 0.761719 13 1.66172 13 2.76172V14.7617C13 15.8617 13.9 16.7617 15 16.7617H22C23.1 16.7617 24 15.8617 24 14.7617V2.76172C24 1.66172 23.1 0.761719 22 0.761719ZM18 14.7617H16V2.76172H18V14.7617Z" fill="#EBB12B"/>
</svg>
