<svg width="18" height="18" viewBox="0 0 18 18" fill="none" xmlns="http://www.w3.org/2000/svg">
<path d="M16.9666 7.94997L15.8333 6.6333C15.6166 6.3833 15.4416 5.91663 15.4416 5.5833V4.16663C15.4416 3.2833 14.7166 2.5583 13.8333 2.5583H12.4166C12.0916 2.5583 11.6166 2.3833 11.3666 2.16663L10.0499 1.0333C9.47494 0.541634 8.53328 0.541634 7.94994 1.0333L6.64161 2.17497C6.39161 2.3833 5.91661 2.5583 5.59161 2.5583H4.14994C3.26661 2.5583 2.54161 3.2833 2.54161 4.16663V5.59163C2.54161 5.91663 2.36661 6.3833 2.15828 6.6333L1.03328 7.9583C0.549943 8.5333 0.549943 9.46663 1.03328 10.0416L2.15828 11.3666C2.36661 11.6166 2.54161 12.0833 2.54161 12.4083V13.8333C2.54161 14.7166 3.26661 15.4416 4.14994 15.4416H5.59161C5.91661 15.4416 6.39161 15.6166 6.64161 15.8333L7.95828 16.9666C8.53328 17.4583 9.47494 17.4583 10.0583 16.9666L11.3749 15.8333C11.6249 15.6166 12.0916 15.4416 12.4249 15.4416H13.8416C14.7249 15.4416 15.4499 14.7166 15.4499 13.8333V12.4166C15.4499 12.0916 15.6249 11.6166 15.8416 11.3666L16.9749 10.05C17.4583 9.47497 17.4583 8.52497 16.9666 7.94997ZM12.4666 7.42497L8.44161 11.45C8.32494 11.5666 8.16661 11.6333 7.99994 11.6333C7.83328 11.6333 7.67494 11.5666 7.55828 11.45L5.54161 9.4333C5.29994 9.19163 5.29994 8.79163 5.54161 8.54997C5.78328 8.3083 6.18328 8.3083 6.42494 8.54997L7.99994 10.125L11.5833 6.54163C11.8249 6.29997 12.2249 6.29997 12.4666 6.54163C12.7083 6.7833 12.7083 7.1833 12.4666 7.42497Z" fill="#EBB12B"/>
</svg>
