<svg width="18" height="21" viewBox="0 0 18 21" fill="none" xmlns="http://www.w3.org/2000/svg">
<path d="M17.51 4.89349C17.4469 4.8428 17.3712 4.81023 17.291 4.79927C17.2108 4.7883 17.1292 4.79936 17.0548 4.83124L9.80976 7.96849C9.49477 8.10574 9.10027 8.17099 8.69527 8.17099C8.13052 8.17324 7.54627 8.04199 7.13902 7.86349C7.01491 7.81122 6.89674 7.74585 6.78652 7.66849C6.81652 7.65349 6.85402 7.63699 6.89527 7.62049L13.4848 4.76749L14.4673 5.18749V3.95974C14.4687 3.87219 14.4504 3.78543 14.4137 3.70595C14.3769 3.62647 14.3227 3.55632 14.255 3.50074C14.1922 3.45011 14.1167 3.41756 14.0368 3.40659C13.9568 3.39563 13.8754 3.40665 13.8013 3.43849L6.55627 6.57574C6.33277 6.66574 6.14077 6.77674 5.97877 6.93799C5.79117 7.12306 5.68463 7.37498 5.68252 7.63849C5.68252 7.64599 5.68477 7.65874 5.68477 7.65874V18.7062L5.68327 18.7212C5.68327 18.7242 5.68552 18.7257 5.68552 18.7287V18.7407H5.68702C5.70202 19.127 5.89702 19.373 6.08302 19.547C6.66802 20.063 7.65052 20.3517 8.69602 20.3667C9.19102 20.3667 9.69352 20.2917 10.1585 20.0922L17.4058 16.9542C17.597 16.8717 17.7223 16.667 17.7223 16.4352V5.35249C17.7234 5.26499 17.705 5.17834 17.6682 5.09891C17.6315 5.01948 17.5774 4.94928 17.51 4.89349ZM12.9148 2.79349C12.902 2.62849 12.8338 2.47099 12.7123 2.37649C12.6492 2.3258 12.5735 2.29324 12.4933 2.28227C12.4131 2.2713 12.3314 2.28236 12.257 2.31424L5.01202 5.44999C4.69702 5.58649 4.30177 5.65249 3.89752 5.65249C3.33277 5.65399 2.74852 5.52274 2.34127 5.34349C2.21704 5.29209 2.09883 5.2272 1.98877 5.14999C2.01877 5.13499 2.05627 5.11849 2.09752 5.10199L8.68777 2.24899L9.67027 2.66899V1.44274C9.6716 1.35513 9.65314 1.26836 9.61626 1.18888C9.57938 1.1094 9.52503 1.03928 9.45727 0.983741C9.39428 0.93312 9.31871 0.900584 9.23864 0.889619C9.15858 0.878653 9.07705 0.889671 9.00277 0.921491L1.75777 4.05949C1.53427 4.14949 1.34302 4.25974 1.18027 4.42174C0.992947 4.60694 0.886684 4.85884 0.884766 5.12224C0.884766 5.13124 0.887015 5.14324 0.887015 5.14324V16.226H0.888516C0.903516 16.6122 1.09852 16.8582 1.28452 17.0322C1.86952 17.5482 2.85202 17.8362 3.89827 17.8512C4.18239 17.8496 4.46561 17.8189 4.74352 17.7597V7.65799C4.73602 7.13299 4.94602 6.62899 5.31502 6.26599C5.57066 6.01801 5.87441 5.82504 6.20752 5.69899L12.9148 2.79349Z" fill="black"/>
</svg>
