<svg width="21" height="20" viewBox="0 0 21 20" fill="none" xmlns="http://www.w3.org/2000/svg">
<path fill-rule="evenodd" clip-rule="evenodd" d="M20.5 10C20.5 15.523 16.023 20 10.5 20C4.977 20 0.5 15.523 0.5 10C0.5 4.477 4.977 0 10.5 0C16.023 0 20.5 4.477 20.5 10ZM5.5 12.75H13.5L11.57 14.435C11.4247 14.567 11.337 14.7507 11.3256 14.9467C11.3142 15.1427 11.3801 15.3353 11.5092 15.4832C11.6383 15.6311 11.8202 15.7225 12.0159 15.7378C12.2116 15.7531 12.4055 15.6911 12.556 15.565L15.993 12.565C16.108 12.4646 16.1896 12.3315 16.227 12.1835C16.2643 12.0355 16.2556 11.8796 16.202 11.7367C16.1485 11.5938 16.0525 11.4706 15.9271 11.3836C15.8016 11.2967 15.6526 11.25 15.5 11.25H5.5C5.30109 11.25 5.11032 11.329 4.96967 11.4697C4.82902 11.6103 4.75 11.8011 4.75 12C4.75 12.1989 4.82902 12.3897 4.96967 12.5303C5.11032 12.671 5.30109 12.75 5.5 12.75ZM9.503 4.507C9.63371 4.65686 9.69956 4.85251 9.68606 5.05091C9.67255 5.24931 9.58081 5.43423 9.431 5.565L7.5 7.25H15.5C15.6989 7.25 15.8897 7.32902 16.0303 7.46967C16.171 7.61032 16.25 7.80109 16.25 8C16.25 8.19891 16.171 8.38968 16.0303 8.53033C15.8897 8.67098 15.6989 8.75 15.5 8.75H5.5C5.34736 8.74995 5.19836 8.70333 5.07291 8.61636C4.94747 8.52939 4.85155 8.40621 4.79796 8.26328C4.74438 8.12035 4.73568 7.96448 4.77303 7.81647C4.81038 7.66847 4.89201 7.53539 5.007 7.435L8.444 4.435C8.51823 4.37012 8.60452 4.32052 8.69794 4.28902C8.79136 4.25753 8.89007 4.24476 8.98843 4.25144C9.08679 4.25813 9.18286 4.28414 9.27115 4.328C9.35945 4.37185 9.43823 4.43267 9.503 4.507Z" fill="white"/>
</svg>
