<svg xmlns="http://www.w3.org/2000/svg" width="32" height="33" fill="none" viewBox="0 0 32 33">
  <path fill="#4B4B4B" d="M29 5.84h-7.15c-1.534 0-3.034.44-4.325 1.272L16 8.09l-1.525-.978A7.975 7.975 0 0 0 10.15 5.84H3a1 1 0 0 0-1 1v17.75a1 1 0 0 0 1 1h7.15c1.534 0 3.034.44 4.325 1.272l1.388.894a.26.26 0 0 0 .134.04.235.235 0 0 0 .134-.04l1.388-.894a8.011 8.011 0 0 1 4.331-1.272H29a1 1 0 0 0 1-1V6.84a1 1 0 0 0-1-1Zm-18.85 17.5h-5.9V8.09h5.9a5.74 5.74 0 0 1 3.11.912l1.524.978.216.141V24.56a10.227 10.227 0 0 0-4.85-1.22Zm17.6 0h-5.9c-1.7 0-3.363.419-4.85 1.219V10.12l.216-.14 1.525-.979a5.736 5.736 0 0 1 3.109-.912h5.9v15.25ZM12.403 12.09H6.597a.23.23 0 0 0-.222.234v1.406c0 .129.1.235.222.235H12.4c.122 0 .222-.106.222-.235v-1.406a.225.225 0 0 0-.219-.234Zm6.972.234v1.406c0 .129.1.235.222.235H25.4c.122 0 .222-.106.222-.235v-1.406a.23.23 0 0 0-.222-.234h-5.803a.23.23 0 0 0-.222.234Zm-6.972 4.14H6.597c-.122 0-.222.107-.222.235v1.406c0 .129.1.235.222.235H12.4c.122 0 .222-.106.222-.235V16.7a.225.225 0 0 0-.219-.234Zm13 0h-5.806c-.122 0-.222.107-.222.235v1.406c0 .129.1.235.222.235H25.4c.122 0 .222-.106.222-.235V16.7a.225.225 0 0 0-.219-.234Z"/>
</svg>
