<svg width="12" height="14" viewBox="0 0 12 14" fill="none" xmlns="http://www.w3.org/2000/svg">
<path d="M10.2496 2.01806C9.18876 0.957194 7.74992 0.361206 6.24963 0.361206C4.74934 0.361206 3.31049 0.957194 2.24963 2.01806C1.18876 3.07893 0.592773 4.51777 0.592773 6.01806C0.592773 7.51835 1.18876 8.95719 2.24963 10.0181L5.76296 13.5381C5.82494 13.6005 5.89867 13.6501 5.97991 13.684C6.06115 13.7178 6.14829 13.7353 6.23629 13.7353C6.3243 13.7353 6.41144 13.7178 6.49268 13.684C6.57392 13.6501 6.64765 13.6005 6.70963 13.5381L10.2496 9.98473C11.3061 8.92828 11.8996 7.49543 11.8996 6.00139C11.8996 4.50736 11.3061 3.07451 10.2496 2.01806ZM9.29629 9.03139L6.24963 12.0914L3.20296 9.03139C2.60106 8.42894 2.19128 7.66156 2.02542 6.82625C1.85957 5.99095 1.94509 5.12522 2.27116 4.33851C2.59724 3.5518 3.14924 2.87943 3.85738 2.40638C4.56552 1.93333 5.39802 1.68085 6.24963 1.68085C7.10124 1.68085 7.93373 1.93333 8.64187 2.40638C9.35002 2.87943 9.90201 3.5518 10.2281 4.33851C10.5542 5.12522 10.6397 5.99095 10.4738 6.82625C10.308 7.66156 9.8982 8.42894 9.29629 9.03139ZM4.24963 3.97139C3.71144 4.51124 3.40922 5.24244 3.40922 6.00473C3.40922 6.76702 3.71144 7.49821 4.24963 8.03806C4.64947 8.43859 5.15869 8.71211 5.71339 8.82433C6.2681 8.93654 6.8436 8.88245 7.36768 8.66883C7.89176 8.45521 8.34108 8.09158 8.65928 7.62356C8.97748 7.15554 9.15038 6.60397 9.15629 6.03806C9.1593 5.6602 9.08651 5.28557 8.94223 4.93632C8.79795 4.58707 8.58511 4.2703 8.31629 4.00473C8.05207 3.73445 7.73701 3.51909 7.38924 3.37104C7.04147 3.22299 6.66785 3.14518 6.28989 3.14208C5.91193 3.13898 5.53709 3.21066 5.18694 3.35299C4.83679 3.49531 4.51824 3.70548 4.24963 3.97139ZM7.37629 7.09139C7.12366 7.34789 6.78977 7.50866 6.43171 7.54623C6.07366 7.58379 5.71367 7.49582 5.4133 7.29735C5.11293 7.09887 4.89083 6.80222 4.78497 6.45812C4.6791 6.11401 4.69606 5.74382 4.83293 5.41083C4.9698 5.07784 5.21809 4.80274 5.53535 4.63255C5.85261 4.46236 6.21913 4.40767 6.57225 4.4778C6.92537 4.54794 7.24317 4.73857 7.4713 5.01708C7.69943 5.2956 7.82374 5.64471 7.82296 6.00473C7.81326 6.41624 7.64062 6.80708 7.34296 7.09139H7.37629Z" fill="white"/>
</svg>
