<svg xmlns="http://www.w3.org/2000/svg" width="32" height="33" fill="none" viewBox="0 0 32 33">
  <path fill="#4B4B4B" stroke="#4B4B4B" d="M23.054 26.975c.12-.143.24-.287.358-.431.273-.333.421-.756.422-1.189v-.001l-.78 1.621Zm0 0h.433l.183-.22c.321-.395.497-.89.497-1.4a2.218 2.218 0 0 0-1.905-2.205c-4.637-.642-7.859-.702-12.51-.023a2.257 2.257 0 0 0-1.919 2.246c0 .495.162.984.466 1.378l-.395.304.395-.304.174.225h.424a38.577 38.577 0 0 1-.334-.429l-.001-.001a1.93 1.93 0 0 1-.395-1.175h.5-.5c0-.958.691-1.777 1.634-1.915l13.253 3.52Zm-7.054-9a4.501 4.501 0 0 0 1.722-8.658A4.5 4.5 0 1 0 16 17.975Zm3.418-1.082a4.834 4.834 0 1 1-6.836-6.836 4.834 4.834 0 0 1 6.836 6.836Z"/>
  <path fill="#4B4B4B" stroke="#4B4B4B" d="M16 29.308c6.904 0 12.5-5.596 12.5-12.5 0-6.903-5.596-12.5-12.5-12.5-6.903 0-12.5 5.597-12.5 12.5 0 6.904 5.597 12.5 12.5 12.5Zm12.833-12.5c0 7.088-5.745 12.834-12.833 12.834S3.167 23.896 3.167 16.808C3.167 9.721 8.912 3.975 16 3.975s12.833 5.746 12.833 12.833Z"/>
</svg>
