<svg width="25" height="25" viewBox="0 0 25 25" fill="none" xmlns="http://www.w3.org/2000/svg">
<path d="M12.25 14.0316C11.8544 14.0316 11.4678 14.1489 11.1389 14.3687C10.81 14.5884 10.5536 14.9008 10.4022 15.2662C10.2509 15.6317 10.2113 16.0338 10.2884 16.4218C10.3656 16.8098 10.5561 17.1661 10.8358 17.4458C11.1155 17.7255 11.4719 17.916 11.8598 17.9932C12.2478 18.0704 12.6499 18.0307 13.0154 17.8794C13.3808 17.728 13.6932 17.4717 13.9129 17.1428C14.1327 16.8139 14.25 16.4272 14.25 16.0316C14.25 15.5012 14.0393 14.9925 13.6642 14.6174C13.2891 14.2423 12.7804 14.0316 12.25 14.0316Z" fill="white"/>
<path d="M13.3611 9.69456C13.0322 9.91432 12.6456 10.0316 12.25 10.0316C11.7196 10.0316 11.2109 9.8209 10.8358 9.44583C10.4607 9.07076 10.25 8.56205 10.25 8.03162C10.25 7.63605 10.3673 7.24937 10.5871 6.92048C10.8068 6.59158 11.1192 6.33523 11.4846 6.18386C11.8501 6.03248 12.2522 5.99288 12.6402 6.07005C13.0281 6.14722 13.3845 6.3377 13.6642 6.6174C13.9439 6.89711 14.1344 7.25347 14.2116 7.64144C14.2887 8.0294 14.2491 8.43153 14.0978 8.79698C13.9464 9.16244 13.69 9.47479 13.3611 9.69456Z" fill="white"/>
</svg>
