<svg xmlns="http://www.w3.org/2000/svg" width="32" height="33" fill="none" viewBox="0 0 32 33">
  <path fill="#4B4B4B" d="M16 2.809c-7.731 0-14 6.268-14 14 0 7.73 6.269 14 14 14s14-6.27 14-14c0-7.732-6.269-14-14-14Zm0 25.625c-6.419 0-11.625-5.207-11.625-11.625 0-6.42 5.206-11.625 11.625-11.625s11.625 5.206 11.625 11.625c0 6.418-5.206 11.625-11.625 11.625Z"/>
  <path fill="#4B4B4B" d="m22.481 16.406-9.253-6.719a.497.497 0 0 0-.79.403v13.438c0 .409.462.64.79.403l9.253-6.719a.498.498 0 0 0 0-.806Zm-8.05 4.187v-7.569l5.21 3.785-5.21 3.784Z"/>
</svg>
